<svg width="132" height="32" viewBox="0 0 132 32" fill="none" xmlns="http://www.w3.org/2000/svg">
<rect width="32" height="32" rx="6" fill="white"/>
<path d="M6.50573 21.4943C5.83142 20.82 5.83142 19.7267 6.50573 19.0524L15.0524 10.5057C15.7267 9.83142 16.82 9.83142 17.4943 10.5057C18.1686 11.18 18.1686 12.2733 17.4943 12.9476L8.94763 21.4943C8.27332 22.1686 7.18004 22.1686 6.50573 21.4943Z" fill="black"/>
<path d="M14.5057 21.4943C13.8314 20.82 13.8314 19.7267 14.5057 19.0524L23.0524 10.5057C23.7267 9.83142 24.82 9.83142 25.4943 10.5057C26.1686 11.18 26.1686 12.2733 25.4943 12.9476L16.9476 21.4943C16.2733 22.1686 15.18 22.1686 14.5057 21.4943Z" fill="black"/>
<path d="M126.337 9.892C129.457 9.892 131.785 12.34 131.785 16.372C131.785 20.404 129.457 22.852 126.337 22.852C124.417 22.852 123.217 21.94 122.569 21.028H122.521V26.668H119.977V10.228H122.521V11.668H122.569C123.217 10.804 124.417 9.892 126.337 9.892ZM125.857 20.788C128.065 20.788 129.241 18.772 129.241 16.372C129.241 13.972 128.065 11.956 125.857 11.956C123.817 11.956 122.545 13.636 122.545 16.372C122.545 19.084 123.817 20.788 125.857 20.788Z" fill="white"/>
<path d="M114.985 5.332H117.529V22.492H114.985V5.332Z" fill="white"/>
<path d="M107.354 20.788C109.442 20.788 110.282 19.492 110.498 18.748H113.018C112.394 21.076 110.57 22.852 107.426 22.852C103.61 22.852 101.282 20.212 101.282 16.372C101.282 12.388 103.61 9.892 107.306 9.892C111.266 9.892 113.21 12.652 113.21 17.02H103.802C103.802 19.084 105.122 20.788 107.354 20.788ZM107.306 11.884C105.266 11.884 103.802 13.252 103.802 15.148H110.69C110.69 13.252 109.346 11.884 107.306 11.884Z" fill="white"/>
<path d="M95.4973 9.892C97.8253 9.892 99.6253 11.212 99.6253 14.02V22.492H97.0813V14.74C97.0813 13.084 96.3853 12.028 94.6333 12.028C92.7853 12.028 91.4653 13.204 91.4653 15.028V22.492H88.9453V5.332H91.4653V11.812H91.5133C92.1613 10.852 93.4333 9.892 95.4973 9.892Z" fill="white"/>
<path d="M83.7754 13.444C83.7754 12.556 83.2474 11.884 81.5674 11.884C79.5514 11.884 78.8074 12.508 78.6874 14.092H76.2394C76.3594 11.74 77.8714 9.892 81.5674 9.892C84.2794 9.892 86.2954 10.924 86.2954 14.188V20.02C86.2954 20.884 86.4874 21.34 87.4714 21.244V22.444C86.8954 22.66 86.4874 22.708 86.0074 22.708C84.6634 22.708 84.0394 22.228 83.7994 21.028H83.7514C82.9834 22.108 81.5914 22.852 79.6954 22.852C77.1994 22.852 75.6634 21.412 75.6634 19.348C75.6634 16.66 77.6554 15.82 80.7274 15.22C82.6234 14.86 83.7754 14.62 83.7754 13.444ZM80.2474 20.86C82.3354 20.86 83.7754 19.828 83.7754 17.836V15.988C83.3674 16.276 82.3834 16.564 81.2074 16.804C79.1194 17.26 78.2074 17.86 78.2074 19.108C78.2074 20.236 78.8794 20.86 80.2474 20.86Z" fill="white"/>
<path d="M74.0586 9.94C74.4906 9.94 74.8026 9.964 75.1626 10.012V12.388H75.1146C72.6906 11.98 70.7466 13.612 70.7466 16.228V22.492H68.2266V10.228H70.7466V12.532H70.7946C71.4426 10.996 72.4506 9.94 74.0586 9.94Z" fill="white"/>
<path d="M63.0566 13.444C63.0566 12.556 62.5286 11.884 60.8486 11.884C58.8326 11.884 58.0886 12.508 57.9686 14.092H55.5206C55.6406 11.74 57.1526 9.892 60.8486 9.892C63.5606 9.892 65.5766 10.924 65.5766 14.188V20.02C65.5766 20.884 65.7686 21.34 66.7526 21.244V22.444C66.1766 22.66 65.7686 22.708 65.2886 22.708C63.9446 22.708 63.3206 22.228 63.0806 21.028H63.0326C62.2646 22.108 60.8726 22.852 58.9766 22.852C56.4806 22.852 54.9446 21.412 54.9446 19.348C54.9446 16.66 56.9366 15.82 60.0086 15.22C61.9046 14.86 63.0566 14.62 63.0566 13.444ZM59.5286 20.86C61.6166 20.86 63.0566 19.828 63.0566 17.836V15.988C62.6486 16.276 61.6646 16.564 60.4886 16.804C58.4006 17.26 57.4886 17.86 57.4886 19.108C57.4886 20.236 58.1606 20.86 59.5286 20.86Z" fill="white"/>
<path d="M48.36 9.892C51.48 9.892 53.808 12.34 53.808 16.372C53.808 20.404 51.48 22.852 48.36 22.852C46.44 22.852 45.24 21.94 44.592 21.028H44.544V26.668H42V10.228H44.544V11.668H44.592C45.24 10.804 46.44 9.892 48.36 9.892ZM47.88 20.788C50.088 20.788 51.264 18.772 51.264 16.372C51.264 13.972 50.088 11.956 47.88 11.956C45.84 11.956 44.568 13.636 44.568 16.372C44.568 19.084 45.84 20.788 47.88 20.788Z" fill="white"/>
</svg>
